<svg width="54" height="54" viewBox="0 0 54 54" fill="none" xmlns="http://www.w3.org/2000/svg">
<path d="M32.563 16.0046L29.7857 16C26.6655 16 24.6492 18.1251 24.6492 21.4142V23.9106H21.8567C21.6154 23.9106 21.42 24.1115 21.42 24.3594V27.9763C21.42 28.2241 21.6157 28.4249 21.8567 28.4249H24.6492V37.5514C24.6492 37.7993 24.8446 38 25.0859 38H28.7292C28.9705 38 29.1659 37.799 29.1659 37.5514V28.4249H32.4308C32.6721 28.4249 32.8675 28.2241 32.8675 27.9763L32.8689 24.3594C32.8689 24.2404 32.8228 24.1264 32.741 24.0422C32.6592 23.9579 32.5478 23.9106 32.432 23.9106H29.1659V21.7944C29.1659 20.7773 29.4018 20.2609 30.6916 20.2609L32.5625 20.2603C32.8036 20.2603 32.999 20.0593 32.999 19.8117V16.4532C32.999 16.2058 32.8038 16.005 32.563 16.0046Z" fill="#1877F2"/>
<rect x="0.5" y="0.5" width="53" height="53" rx="26.5" stroke="#85A9C7"/>
</svg>
