<svg width="22" height="22" viewBox="0 0 22 22" fill="none" xmlns="http://www.w3.org/2000/svg">
<path d="M16.0991 0.920883L13.5533 0.916687C10.6931 0.916687 8.84478 2.86469 8.84478 5.87973V8.16803H6.28507C6.06388 8.16803 5.88477 8.35223 5.88477 8.57944V11.8949C5.88477 12.1221 6.06409 12.3061 6.28507 12.3061H8.84478V20.6721C8.84478 20.8994 9.0239 21.0834 9.24509 21.0834H12.5848C12.806 21.0834 12.9851 20.8991 12.9851 20.6721V12.3061H15.978C16.1992 12.3061 16.3783 12.1221 16.3783 11.8949L16.3795 8.57944C16.3795 8.47035 16.3372 8.36587 16.2623 8.28866C16.1873 8.21145 16.0852 8.16803 15.979 8.16803H12.9851V6.22821C12.9851 5.29586 13.2014 4.82255 14.3837 4.82255L16.0987 4.82192C16.3197 4.82192 16.4988 4.63771 16.4988 4.41071V1.33209C16.4988 1.1053 16.3199 0.921303 16.0991 0.920883Z" fill="#8E0038"/>
</svg>
