<svg width="54" height="54" viewBox="0 0 54 54" fill="none" xmlns="http://www.w3.org/2000/svg">
<rect x="0.5" y="0.5" width="53" height="53" rx="26.5" stroke="#85A9C7"/>
<path d="M37.1693 25.0873L28.1957 25.0869C27.7995 25.0869 27.4783 25.4081 27.4783 25.8043V28.671C27.4783 29.0672 27.7995 29.3884 28.1957 29.3884H33.2491C32.6957 30.8244 31.6629 32.0271 30.3452 32.7913L32.5 36.5213C35.9565 34.5223 38 31.0148 38 27.0884C38 26.5293 37.9588 26.1297 37.8764 25.6797C37.8137 25.3378 37.5169 25.0873 37.1693 25.0873Z" fill="#167EE6"/>
<path d="M26.9999 33.6956C24.5269 33.6956 22.368 32.3444 21.2085 30.345L17.4785 32.4949C19.3767 35.7846 22.9325 38 26.9999 38C28.9953 38 30.878 37.4627 32.4999 36.5265V36.5214L30.3452 32.7913C29.3595 33.3629 28.219 33.6956 26.9999 33.6956Z" fill="#12B347"/>
<path d="M32.5 36.5265V36.5214L30.3452 32.7913C29.3596 33.3629 28.2192 33.6956 27 33.6956V38C28.9953 38 30.8782 37.4627 32.5 36.5265Z" fill="#0F993E"/>
<path d="M20.3044 27C20.3044 25.781 20.637 24.6406 21.2085 23.655L17.4786 21.5051C16.5372 23.1219 16 24.9996 16 27C16 29.0005 16.5372 30.8781 17.4786 32.4949L21.2085 30.345C20.637 29.3594 20.3044 28.219 20.3044 27Z" fill="#FFD500"/>
<path d="M26.9999 20.3044C28.6126 20.3044 30.0939 20.8774 31.2509 21.8306C31.5363 22.0657 31.9512 22.0487 32.2127 21.7872L34.2438 19.7561C34.5405 19.4595 34.5193 18.9739 34.2024 18.699C32.2639 17.0172 29.7416 16 26.9999 16C22.9325 16 19.3767 18.2153 17.4785 21.5051L21.2085 23.655C22.368 21.6555 24.5269 20.3044 26.9999 20.3044Z" fill="#FF4B26"/>
<path d="M31.251 21.8306C31.5364 22.0657 31.9513 22.0487 32.2128 21.7872L34.2439 19.7561C34.5405 19.4595 34.5194 18.9739 34.2025 18.699C32.264 17.0172 29.7417 16 27 16V20.3044C28.6126 20.3044 30.094 20.8774 31.251 21.8306Z" fill="#D93F21"/>
</svg>
