<svg width="94" height="32" viewBox="0 0 94 32" fill="none" xmlns="http://www.w3.org/2000/svg">
<path d="M15.1387 1.51822C13.3954 1.67533 11.3947 2.19963 9.37886 3.32396L3.2632 6.79916C2.68779 7.14554 2.35655 7.77395 2.36033 8.4459C2.41901 18.2771 0.393704 19.7687 3.05121 24.6124C3.58876 25.5947 3.62473 26.1304 3.39948 27.3948C3.31998 27.8415 2.81839 28.0705 2.42658 27.8453L0.749552 26.7834C0.285814 26.5146 0 26.0206 0 25.485V8.34558C0 7.41621 0.495916 6.55498 1.30225 6.09125L8.3416 2.04064C13.0149 -0.656613 19.0928 -0.204232 20.9193 0.708101C23.2323 1.86082 23.1566 3.48296 23.1566 4.58079L23.1471 21.6426C23.1453 23.6281 22.0872 25.4622 20.3666 26.4541L11.213 31.7388C10.6111 32.0871 9.8691 32.0871 9.2653 31.7388L7.02421 30.4498C6.67026 30.2454 6.49233 29.8271 6.60401 29.4334C7.50688 26.244 9.22933 27.1885 10.6489 24.3587C11.9796 21.7069 11.0881 18.6425 10.4634 12.1861C10.3934 11.4611 10.7549 10.7589 11.3871 10.3955L18.9338 6.00607C20.3079 5.21298 20.9269 4.18897 20.6903 3.29557C20.6392 3.09872 20.5313 3.06465 20.272 3.20661L9.04951 9.60241C8.38135 9.97529 8.1334 10.2346 8.19397 11.3286C8.39839 14.9912 8.31132 17.8418 8.14286 20.8192L7.36492 20.4217C7.40466 17.6468 7.3422 14.2909 7.03367 10.6662C6.975 9.98475 7.3157 9.32984 7.90815 8.98914L19.3388 2.46463C20.0354 2.06335 19.3937 1.92518 18.9527 1.75672C18.7596 1.6829 18.5211 1.63368 18.2618 1.58447C17.993 1.53337 17.7754 1.54283 17.4782 1.72265L6.09484 8.0787C5.42668 8.45158 5.17683 8.65032 5.2374 9.74247C5.44182 13.4051 5.33772 16.2897 5.18251 19.3012L4.36671 18.9245C4.40646 16.1667 4.38942 12.8145 4.08279 9.20302C4.02222 8.48376 4.37996 7.79477 5.00458 7.43325L15.1046 1.81729C15.2579 1.72454 15.6838 1.46901 15.1387 1.51822Z" fill="#8E0038"/>
<path d="M38.8529 13.5636C38.7697 12.9655 38.5539 12.5453 38.2037 12.303C37.8535 12.0626 37.3046 11.9415 36.5551 11.9415C35.9399 11.9415 35.4648 12.021 35.1317 12.1781C34.7985 12.3371 34.632 12.5983 34.632 12.9655C34.632 13.3327 34.7985 13.6109 35.1317 13.8021C35.4648 13.9933 35.9626 14.1807 36.6289 14.3643C37.3292 14.563 37.9936 14.7428 38.6258 14.9018C39.258 15.0608 39.8164 15.2312 40.299 15.4129C40.9483 15.6779 41.448 16.0413 41.7981 16.4975C42.1464 16.9555 42.3225 17.5839 42.3225 18.3827C42.3225 19.6641 41.8682 20.6635 40.9615 21.379C40.0549 22.0945 38.7185 22.4522 36.9526 22.4522C35.056 22.4522 33.6023 22.0528 32.5953 21.2541C31.5883 20.4553 31.0697 19.4313 31.0356 18.1839H34.3821C34.3821 18.7669 34.6074 19.2155 35.056 19.5316C35.5046 19.8496 36.1292 20.0067 36.928 20.0067C37.509 20.0067 38.0182 19.9121 38.4498 19.719C38.8832 19.5278 39.099 19.2004 39.099 18.7329C39.099 18.2994 38.904 17.9928 38.5122 17.8092C38.1204 17.6256 37.6586 17.4685 37.1267 17.3341C36.0951 17.0861 35.2623 16.8609 34.6301 16.6602C33.9979 16.4615 33.466 16.2211 33.0326 15.9372C32.4496 15.5719 32.0464 15.1555 31.8212 14.6879C31.5959 14.2223 31.4842 13.715 31.4842 13.1661C31.4842 12.6513 31.5751 12.1667 31.7587 11.7181C31.9423 11.2695 32.2414 10.8815 32.6578 10.5578C33.0742 10.2342 33.6118 9.98052 34.2686 9.79692C34.9254 9.61332 35.7203 9.52246 36.6535 9.52246C38.4346 9.52246 39.7463 9.86317 40.5867 10.5465C41.4272 11.2298 41.889 12.2367 41.9723 13.5674H38.8529V13.5636Z" fill="#8E0038"/>
<path d="M51.5096 22.1289V14.5142C51.5096 13.581 51.3469 12.945 51.0232 12.6043C50.6995 12.2636 50.162 12.0933 49.4124 12.0933C49.013 12.0933 48.6553 12.1728 48.3392 12.3299C48.0212 12.4889 47.7562 12.7046 47.5404 12.9791C47.3246 13.2535 47.1619 13.5696 47.054 13.9293C46.9461 14.287 46.8912 14.675 46.8912 15.0896V22.1308H43.645V5.35107H45.0836C46.083 5.35107 46.8912 6.1612 46.8912 7.15871V11.4421C47.0085 11.1752 47.1865 10.9216 47.4268 10.6793C47.6672 10.437 47.9474 10.2345 48.2635 10.068C48.5796 9.90138 48.9297 9.76889 49.3121 9.66857C49.6944 9.56825 50.0938 9.51904 50.5102 9.51904C51.7746 9.51904 52.8043 9.86542 53.5936 10.5544C54.3829 11.2453 54.7785 12.2068 54.7785 13.439V22.127H51.5096V22.1289Z" fill="#8E0038"/>
<path d="M64.5455 22.1286V20.4061C63.7126 21.7708 62.4406 22.4522 60.7239 22.4522C60.1087 22.4522 59.5465 22.3443 59.0393 22.1286C58.532 21.9128 58.0948 21.6042 57.7295 21.2049C57.3622 20.8055 57.0764 20.3304 56.8682 19.7815C56.66 19.2326 56.5559 18.6174 56.5559 17.9341V9.84424H57.9944C58.9938 9.84424 59.8021 10.6544 59.8021 11.6519V17.4325C59.8021 18.9657 60.4911 19.7304 61.8747 19.7304C62.7056 19.7304 63.3341 19.4692 63.7599 18.943C64.1858 18.4187 64.3978 17.7486 64.3978 16.9328V9.84424H65.8098C66.8092 9.84424 67.6175 10.6544 67.6175 11.6519V22.1286H64.5455Z" fill="#8E0038"/>
<path d="M69.4575 22.1289V5.35107H70.845C71.8444 5.35107 72.6526 6.1612 72.6526 7.15871V11.4421C73.5687 10.1588 74.7839 9.51904 76.2981 9.51904C77.0969 9.51904 77.8086 9.67235 78.4332 9.98088C79.0578 10.2894 79.5859 10.7266 80.0194 11.2926C80.4528 11.8585 80.7803 12.5286 81.0055 13.3028C81.2308 14.0769 81.3425 14.9306 81.3425 15.8618C81.3425 16.8934 81.21 17.8171 80.9431 18.6329C80.6781 19.4487 80.3109 20.1396 79.8452 20.7055C79.3796 21.2715 78.8175 21.7049 78.1606 22.004C77.5038 22.3031 76.7921 22.4526 76.0256 22.4526C74.4924 22.4526 73.3529 21.845 72.6053 20.6298L72.5807 22.127H69.4575V22.1289ZM75.276 19.8064C76.0918 19.8064 76.7562 19.462 77.2729 18.7711C77.7897 18.0802 78.0471 17.1849 78.0471 16.0871C78.0471 13.5564 77.1158 12.292 75.2514 12.292C73.4362 12.292 72.5295 13.6245 72.5295 16.2877C72.5295 17.3363 72.7908 18.1862 73.317 18.8335C73.8394 19.4828 74.4924 19.8064 75.276 19.8064Z" fill="#8E0038"/>
<path d="M90.3274 22.1289C90.2271 21.8128 90.1608 21.4456 90.1267 21.031C89.7444 21.4645 89.2352 21.809 88.6049 22.0664C87.9727 22.3257 87.2402 22.4525 86.4074 22.4525C84.9935 22.4525 83.9562 22.1402 83.2994 21.5156C82.6407 20.891 82.3132 20.0809 82.3132 19.0814C82.3132 18.1994 82.4552 17.4953 82.7372 16.971C83.0211 16.4467 83.4111 16.034 83.9108 15.735C84.4105 15.4359 85.0048 15.2144 85.6957 15.0725C86.3866 14.9324 87.1399 14.8018 87.9557 14.6863C88.7715 14.5709 89.3204 14.4157 89.6043 14.2245C89.8864 14.0333 90.0283 13.721 90.0283 13.2876C90.0283 12.8882 89.8409 12.5759 89.4662 12.3506C89.0914 12.1254 88.5879 12.0137 87.9557 12.0137C87.2061 12.0137 86.6705 12.1803 86.3449 12.5134C86.0193 12.8465 85.8168 13.2876 85.7335 13.8365H82.7126C82.7296 13.2043 82.8338 12.6213 83.0249 12.0894C83.2161 11.5575 83.5246 11.0995 83.9486 10.7152C84.3726 10.3329 84.9253 10.0376 85.6086 9.8294C86.2919 9.62119 87.1229 9.51709 88.1052 9.51709C89.0706 9.51709 89.8901 9.62498 90.564 9.84076C91.2378 10.0565 91.7792 10.3689 92.1861 10.7777C92.5931 11.1865 92.8884 11.6938 93.0738 12.2995C93.2575 12.9071 93.3483 13.5942 93.3483 14.3589V22.1232H90.3274V22.1289ZM90.1021 16.1097C89.9356 16.2763 89.6933 16.4107 89.3772 16.5091C89.0611 16.6094 88.603 16.7173 88.0049 16.8328C87.0718 17.0164 86.432 17.2492 86.0818 17.5331C85.7316 17.8152 85.5575 18.2221 85.5575 18.7559C85.5575 19.672 86.0818 20.1301 87.1304 20.1301C87.5468 20.1301 87.9349 20.06 88.2907 19.9181C88.6485 19.778 88.957 19.5868 89.2144 19.3446C89.4737 19.1023 89.68 18.8202 89.839 18.4947C89.998 18.171 90.0775 17.8246 90.0775 17.4593L90.1021 16.1097Z" fill="#8E0038"/>
</svg>
