<svg width="22" height="21" viewBox="0 0 22 21" fill="none" xmlns="http://www.w3.org/2000/svg">
<path d="M10.0821 1.11573C10.4302 0.312852 11.5688 0.312853 11.917 1.11573L13.9242 5.74463C14.214 6.41294 14.8443 6.87083 15.5694 6.93993L20.5921 7.41853C21.4632 7.50155 21.8151 8.58442 21.1591 9.16364L17.377 12.5031C16.831 12.9852 16.5902 13.7261 16.7486 14.4371L17.8455 19.3618C18.0357 20.216 17.1146 20.8852 16.361 20.4403L12.0163 17.8753C11.389 17.505 10.61 17.505 9.98275 17.8753L5.63805 20.4403C4.88447 20.8852 3.96332 20.216 4.15358 19.3618L5.25048 14.4371C5.40884 13.7261 5.16812 12.9852 4.62207 12.5031L0.839999 9.16363C0.184001 8.58441 0.535848 7.50155 1.40702 7.41853L6.42964 6.93993C7.15479 6.87083 7.78503 6.41294 8.07483 5.74463L10.0821 1.11573Z" fill="#8E0038"/>
</svg>
