<svg width="26" height="26" viewBox="0 0 26 26" fill="none" xmlns="http://www.w3.org/2000/svg">
<path d="M24.6608 12.5759C24.6608 19.0543 19.3234 24.3259 12.7148 24.3259C6.10623 24.3259 0.76889 19.0543 0.76889 12.5759C0.76889 6.09754 6.10623 0.825928 12.7148 0.825928C19.3234 0.825928 24.6608 6.09754 24.6608 12.5759Z" fill="#FFB359" stroke="white" stroke-width="1.5"/>
<path d="M10.9091 17.066C10.6965 17.066 10.5241 17.0037 10.3921 16.879C10.2675 16.747 10.2051 16.571 10.2051 16.351V9.916C10.2051 9.70333 10.2638 9.53833 10.3811 9.421C10.5058 9.30367 10.6745 9.245 10.8871 9.245H13.5931C14.4218 9.245 15.0671 9.454 15.5291 9.872C15.9911 10.2827 16.2221 10.862 16.2221 11.61C16.2221 12.358 15.9911 12.941 15.5291 13.359C15.0671 13.777 14.4218 13.986 13.5931 13.986H11.6241V16.351C11.6241 16.571 11.5581 16.747 11.4261 16.879C11.3015 17.0037 11.1291 17.066 10.9091 17.066ZM13.4171 12.897C14.3925 12.897 14.8801 12.4717 14.8801 11.621C14.8801 10.7703 14.3925 10.345 13.4171 10.345H11.6241V12.897H13.4171Z" fill="white"/>
</svg>
