<svg width="27" height="25" viewBox="0 0 27 25" fill="none" xmlns="http://www.w3.org/2000/svg">
<path d="M25.2917 12.5C25.2917 18.9608 19.827 24.25 13.0208 24.25C6.21469 24.25 0.75 18.9608 0.75 12.5C0.75 6.03922 6.21469 0.75 13.0208 0.75C19.827 0.75 25.2917 6.03922 25.2917 12.5Z" fill="#FFB359" stroke="white" stroke-width="1.5"/>
<path d="M13.2705 10.918C13.3218 10.786 13.3951 10.687 13.4905 10.621C13.5931 10.555 13.7031 10.522 13.8205 10.522C13.9891 10.522 14.1395 10.5807 14.2715 10.698C14.4108 10.808 14.4805 10.9473 14.4805 11.116C14.4805 11.2113 14.4621 11.2957 14.4255 11.369L12.6105 15.626C12.5518 15.7653 12.4601 15.8717 12.3355 15.945C12.2181 16.0183 12.0861 16.055 11.9395 16.055C11.8001 16.055 11.6681 16.0183 11.5435 15.945C11.4261 15.8717 11.3381 15.7653 11.2795 15.626L9.97047 12.48L8.70547 15.626C8.64681 15.7653 8.55514 15.8717 8.43047 15.945C8.31314 16.0183 8.18114 16.055 8.03447 16.055C7.89514 16.055 7.76314 16.0183 7.63847 15.945C7.51381 15.8717 7.42214 15.7653 7.36347 15.626L5.55947 11.369C5.52281 11.2737 5.50447 11.193 5.50447 11.127C5.50447 10.9583 5.57781 10.8153 5.72447 10.698C5.87114 10.5733 6.03247 10.511 6.20847 10.511C6.33314 10.511 6.44681 10.544 6.54947 10.61C6.65214 10.676 6.72914 10.775 6.78047 10.907L8.07847 14.262L9.40947 10.94C9.46814 10.8007 9.55247 10.698 9.66247 10.632C9.77247 10.5587 9.89347 10.522 10.0255 10.522C10.1575 10.522 10.2785 10.5587 10.3885 10.632C10.4985 10.698 10.5828 10.8007 10.6415 10.94L11.9835 14.273L13.2705 10.918ZM17.4464 16.088C16.9111 16.088 16.4381 15.9743 16.0274 15.747C15.6241 15.5197 15.3124 15.197 15.0924 14.779C14.8724 14.361 14.7624 13.8733 14.7624 13.316C14.7624 12.7587 14.8761 12.2673 15.1034 11.842C15.3381 11.4093 15.6644 11.0757 16.0824 10.841C16.5004 10.6063 16.9808 10.489 17.5234 10.489C17.8094 10.489 18.0954 10.5293 18.3814 10.61C18.6748 10.6907 18.9314 10.8007 19.1514 10.94C19.3861 11.094 19.5034 11.2883 19.5034 11.523C19.5034 11.6843 19.4631 11.8163 19.3824 11.919C19.3091 12.0143 19.2101 12.062 19.0854 12.062C19.0048 12.062 18.9204 12.0437 18.8324 12.007C18.7444 11.9703 18.6564 11.9263 18.5684 11.875C18.4071 11.7797 18.2531 11.7063 18.1064 11.655C17.9598 11.5963 17.7911 11.567 17.6004 11.567C17.1458 11.567 16.7938 11.7173 16.5444 12.018C16.3024 12.3113 16.1814 12.7367 16.1814 13.294C16.1814 13.844 16.3024 14.2693 16.5444 14.57C16.7938 14.8633 17.1458 15.01 17.6004 15.01C17.7838 15.01 17.9451 14.9843 18.0844 14.933C18.2311 14.8743 18.3924 14.7973 18.5684 14.702C18.6784 14.636 18.7738 14.5883 18.8544 14.559C18.9351 14.5223 19.0158 14.504 19.0964 14.504C19.2138 14.504 19.3128 14.5553 19.3934 14.658C19.4741 14.7607 19.5144 14.889 19.5144 15.043C19.5144 15.1677 19.4851 15.2777 19.4264 15.373C19.3751 15.461 19.2871 15.5417 19.1624 15.615C18.9351 15.7617 18.6711 15.879 18.3704 15.967C18.0698 16.0477 17.7618 16.088 17.4464 16.088Z" fill="white"/>
</svg>
