<svg width="16" height="15" viewBox="0 0 16 15" fill="none" xmlns="http://www.w3.org/2000/svg">
<path d="M14.7316 1.60897H12.5493V0.536525C12.5491 0.465877 12.5348 0.395977 12.5073 0.330919C12.4797 0.265862 12.4395 0.206957 12.3889 0.157656C12.2859 0.056609 12.1474 0 12.0031 0C11.8589 0 11.7203 0.056609 11.6174 0.157656C11.5668 0.207111 11.5267 0.266169 11.4992 0.331361C11.4718 0.396554 11.4577 0.466567 11.4577 0.537289V1.60897H3.81924V0.536525C3.81906 0.465877 3.80478 0.395977 3.77723 0.330919C3.74969 0.265862 3.70944 0.206957 3.65884 0.157656C3.55587 0.056609 3.41736 0 3.27309 0C3.12882 0 2.99032 0.056609 2.88735 0.157656C2.83688 0.207021 2.79677 0.265955 2.76936 0.331009C2.74195 0.396063 2.72779 0.465932 2.7277 0.536525V1.6082H0.545388C0.401271 1.60792 0.262785 1.66414 0.159644 1.76479C0.109181 1.81416 0.0690691 1.87309 0.0416572 1.93815C0.0142452 2.0032 8.32247e-05 2.07307 0 2.14366L0 14.4645C0 14.6066 0.0572886 14.7426 0.160408 14.8434C0.263359 14.9439 0.401536 15.0001 0.545388 15H14.7316C14.8767 15 15.0142 14.9442 15.1173 14.8434C15.1678 14.794 15.2079 14.7351 15.2353 14.6701C15.2627 14.605 15.2769 14.5351 15.277 14.4645V2.14443C15.2768 2.07378 15.2625 2.00388 15.235 1.93882C15.2074 1.87376 15.1672 1.81486 15.1166 1.76556C15.0136 1.66509 14.8754 1.60888 14.7316 1.60897ZM14.1854 2.67988V4.82324H1.0923V2.67988H14.1847H14.1854ZM1.0923 13.9298V5.89416H14.1847V13.9298H1.0923Z" fill="#4BA58D"/>
<path d="M14.7316 1.60897H12.5493V0.536525C12.5491 0.465877 12.5348 0.395977 12.5073 0.330919C12.4797 0.265862 12.4395 0.206957 12.3889 0.157656C12.2859 0.056609 12.1474 0 12.0031 0C11.8589 0 11.7203 0.056609 11.6174 0.157656C11.5668 0.207111 11.5267 0.266169 11.4992 0.331361C11.4718 0.396554 11.4577 0.466567 11.4577 0.537289V1.60897H3.81924V0.536525C3.81906 0.465877 3.80478 0.395977 3.77723 0.330919C3.74969 0.265862 3.70944 0.206957 3.65884 0.157656C3.55587 0.056609 3.41736 0 3.27309 0C3.12882 0 2.99032 0.056609 2.88735 0.157656C2.83688 0.207021 2.79677 0.265955 2.76936 0.331009C2.74195 0.396063 2.72779 0.465932 2.7277 0.536525V1.6082H0.545388C0.401271 1.60792 0.262785 1.66414 0.159644 1.76479C0.109181 1.81416 0.0690691 1.87309 0.0416572 1.93815C0.0142452 2.0032 8.32247e-05 2.07307 0 2.14366L0 14.4645C0 14.6066 0.0572886 14.7426 0.160408 14.8434C0.263359 14.9439 0.401536 15.0001 0.545388 15H14.7316C14.8767 15 15.0142 14.9442 15.1173 14.8434C15.1678 14.794 15.2079 14.7351 15.2353 14.6701C15.2627 14.605 15.2769 14.5351 15.277 14.4645V2.14443C15.2768 2.07378 15.2625 2.00388 15.235 1.93882C15.2074 1.87376 15.1672 1.81486 15.1166 1.76556C15.0136 1.66509 14.8754 1.60888 14.7316 1.60897ZM14.1854 2.67988V4.82324H1.0923V2.67988H14.1847H14.1854ZM1.0923 13.9298V5.89416H14.1847V13.9298H1.0923Z" fill="#4BA58D"/>
<path d="M3.05664 7.64001H4.58434V9.16771H3.05664V7.64001ZM3.05664 10.6954H4.58434V12.2231H3.05664V10.6954ZM6.87588 7.64001H8.40358V9.16771H6.87588V7.64001Z" fill="#4BA58D"/>
<path d="M6.875 10.6949H8.4027V12.2226H6.875V10.6949Z" fill="#4BA58D"/>
<path d="M10.6934 7.64001H12.2211V9.16771H10.6934V7.64001ZM10.6934 10.6954H12.2211V12.2231H10.6934V10.6954Z" fill="#4BA58D"/>
</svg>
