<svg xmlns="http://www.w3.org/2000/svg" enable-background="new 0 0 256 256" height="50" viewBox="0 0 256 256" width="512">
    <path d="m51.495 252c-5.629 0-10.192-4.563-10.192-10.192v-227.616c0-5.629 4.563-10.192 10.192-10.192 5.629 0 10.192 4.563 10.192 10.192v227.616c0 5.629-4.563 10.192-10.192 10.192z" fill="#fff"/>
    <path d="m51.495 254c-6.723 0-12.192-5.469-12.192-12.192v-227.616c0-6.723 5.469-12.192 12.192-12.192s12.192 5.469 12.192 12.192v227.616c0 6.723-5.469 12.192-12.192 12.192zm0-248c-4.517 0-8.192 3.675-8.192 8.192v227.616c0 4.517 3.675 8.192 8.192 8.192s8.192-3.675 8.192-8.192v-227.616c0-4.517-3.675-8.192-8.192-8.192z" fill="#fff"/>
    
    <ellipse cx="51.443" cy="29.339" fill="#fff" rx="25.339" ry="25.339" transform="matrix(.707 -.707 .707 .707 -5.679 44.969)"/>
    
    <path d="m204.608 252c-5.629 0-10.192-4.563-10.192-10.192v-227.616c0-5.629 4.563-10.192 10.192-10.192 5.629 0 10.192 4.563 10.192 10.192v227.616c0 5.629-4.563 10.192-10.192 10.192z" fill="#fff"/>
    <path d="m204.608 254c-6.723 0-12.192-5.469-12.192-12.192v-227.616c.001-6.723 5.47-12.192 12.192-12.192s12.191 5.469 12.191 12.192v227.616c.001 6.723-5.468 12.192-12.191 12.192zm0-248c-4.517 0-8.192 3.675-8.192 8.192v227.616c0 4.517 3.675 8.192 8.192 8.192s8.191-3.675 8.191-8.192v-227.616c.001-4.517-3.674-8.192-8.191-8.192z" fill="#fff"/>
    <ellipse cx="204.557" cy="226.661" fill="#fff" rx="25.339" ry="25.339" transform="matrix(.707 -.707 .707 .707 -100.36 211.031)"/>
    
    <path d="m128.052 252c-5.629 0-10.192-4.563-10.192-10.192v-227.616c0-5.629 4.563-10.192 10.192-10.192 5.629 0 10.192 4.563 10.192 10.192v227.616c-.001 5.629-4.564 10.192-10.192 10.192z" fill="#fff"/>
    <path d="m128.052 254c-6.723 0-12.192-5.469-12.192-12.192v-227.616c0-6.723 5.469-12.192 12.192-12.192s12.192 5.469 12.192 12.192v227.616c0 6.723-5.47 12.192-12.192 12.192zm0-248c-4.517 0-8.192 3.675-8.192 8.192v227.616c0 4.517 3.675 8.192 8.192 8.192s8.192-3.675 8.192-8.192v-227.616c0-4.517-3.675-8.192-8.192-8.192z" fill="#fff"/>
    <circle cx="128" cy="126.383" r="25.339" style="fill: #fff;"/>
    <path d="m204.557 254c-15.075 0-27.339-12.264-27.339-27.339s12.264-27.339 27.339-27.339 27.339 12.264 27.339 27.339-12.265 27.339-27.339 27.339zm0-50.678c-12.869 0-23.339 10.47-23.339 23.339s10.47 23.339 23.339 23.339 23.339-10.47 23.339-23.339-10.47-23.339-23.339-23.339z" fill="#000"/>
    <g fill="#000">
        <path d="m128 153.722c-15.075 0-27.339-12.264-27.339-27.339s12.264-27.339 27.339-27.339 27.339 12.264 27.339 27.339-12.264 27.339-27.339 27.339zm0-50.679c-12.869 0-23.339 10.47-23.339 23.339s10.47 23.339 23.339 23.339 23.339-10.47 23.339-23.339-10.47-23.339-23.339-23.339z"/>
        <path d="m51.443 56.678c-15.075 0-27.339-12.264-27.339-27.339s12.265-27.339 27.339-27.339c15.075 0 27.339 12.264 27.339 27.339.001 15.075-12.263 27.339-27.339 27.339zm0-50.678c-12.869 0-23.339 10.47-23.339 23.339s10.47 23.339 23.339 23.339 23.339-10.47 23.339-23.339-10.47-23.339-23.339-23.339z"/>
    </g>
</svg>