<svg width="26" height="26" viewBox="0 0 26 26" fill="none" xmlns="http://www.w3.org/2000/svg">
<circle cx="13.107" cy="12.7285" r="11.7844" fill="#FFB359" stroke="white" stroke-width="1.5"/>
<g clip-path="url(#clip0_353:6)">
<path d="M18.6002 16.9304C18.4912 16.9903 18.3749 17.0186 18.2549 17.0186C17.962 17.0186 17.666 16.8457 17.5032 16.5494L16.0321 13.86H12.2322C12.2112 13.86 12.1902 13.86 12.169 13.8567H12.1371C11.5514 13.8781 11.0506 13.43 11.0117 12.8411L10.7613 9.02022C10.7227 8.42046 11.1776 7.90184 11.7778 7.86297L12.0031 7.84918C12.6033 7.80986 13.1215 8.26183 13.1608 8.86135L13.2275 9.91623H15.5458C15.8423 9.91623 16.0818 10.1842 16.0818 10.5121C16.0818 10.8405 15.8421 11.1085 15.5458 11.1085H13.3048L13.3612 11.9589H16.1349C16.2405 11.9589 16.3394 11.9765 16.4346 12.0081C16.6777 12.0506 16.9073 12.2095 17.0452 12.4599L18.8725 15.801C19.0975 16.2177 18.9778 16.7223 18.6002 16.9304Z" fill="white"/>
<path d="M11.905 7.55073C12.6031 7.55073 13.1691 6.98476 13.1691 6.2866C13.1691 5.58843 12.6031 5.02246 11.905 5.02246C11.2068 5.02246 10.6408 5.58843 10.6408 6.2866C10.6408 6.98476 11.2068 7.55073 11.905 7.55073Z" fill="white"/>
<path d="M15.4142 14.7429H11.6145C11.5931 14.7429 11.5721 14.7429 11.551 14.7395H11.5194C10.9337 14.7601 10.4327 14.3122 10.3936 13.7231L10.2311 11.2429C9.00514 12.0415 8.19319 13.4221 8.19319 14.9944C8.19319 17.4667 10.1974 19.4707 12.6696 19.4707C14.4133 19.4707 15.9199 18.472 16.6593 17.0176L15.4142 14.7429Z" fill="white"/>
</g>
<defs>
<clipPath id="clip0_353:6">
<rect width="14.4628" height="14.4628" fill="white" transform="translate(6.35809 5.01465)"/>
</clipPath>
</defs>
</svg>
