<?xml version="1.0" encoding="UTF-8"?>
<svg width="10px" height="18px" viewBox="0 0 10 18" version="1.1" xmlns="http://www.w3.org/2000/svg" xmlns:xlink="http://www.w3.org/1999/xlink">
    <!-- Generator: Sketch 45.2 (43514) - http://www.bohemiancoding.com/sketch -->
    <title></title>
    <desc>Created with Sketch.</desc>
    <defs></defs>
    <g id="Page-1" stroke="none" stroke-width="1" fill="none" fill-rule="evenodd">
        <g id="index" transform="translate(-908.000000, -24.000000)" fill="#4965AE">
            <g id="social" transform="translate(908.000000, 24.000000)">
                <path d="M9.6328125,0.691964286 L9.6328125,3.34375 L8.05580357,3.34375 C7.47990783,3.34375 7.09151886,3.46428451 6.890625,3.70535714 C6.68973114,3.94642978 6.58928571,4.3080333 6.58928571,4.79017857 L6.58928571,6.68861607 L9.53236607,6.68861607 L9.140625,9.66183036 L6.58928571,9.66183036 L6.58928571,17.2857143 L3.515625,17.2857143 L3.515625,9.66183036 L0.954241071,9.66183036 L0.954241071,6.68861607 L3.515625,6.68861607 L3.515625,4.49888393 C3.515625,3.25334199 3.8638358,2.28739182 4.56026786,1.60100446 C5.25669991,0.914617104 6.18414599,0.571428571 7.34263393,0.571428571 C8.32701385,0.571428571 9.09039907,0.611606741 9.6328125,0.691964286 Z" id=""></path>
            </g>
        </g>
    </g>
</svg>