<svg width="26" height="26" viewBox="0 0 26 26" fill="none" xmlns="http://www.w3.org/2000/svg">
<circle cx="13" cy="13" r="13" fill="#51C3E8"/>
<path d="M18.9999 11.9611C18.9999 16.5976 12.9998 20.5716 12.9998 20.5716C12.9998 20.5716 6.99976 16.5976 6.99976 11.9611C6.99976 10.3801 7.63191 8.8639 8.75714 7.74597C9.88237 6.62805 11.4085 6 12.9998 6C14.5912 6 16.1173 6.62805 17.2425 7.74597C18.3678 8.8639 18.9999 10.3801 18.9999 11.9611Z" fill="white"/>
<path d="M12.9994 13.9278C14.0645 13.9278 14.928 13.0643 14.928 11.9992C14.928 10.934 14.0645 10.0706 12.9994 10.0706C11.9343 10.0706 11.0708 10.934 11.0708 11.9992C11.0708 13.0643 11.9343 13.9278 12.9994 13.9278Z" fill="white" stroke="#51C3E8" stroke-linecap="round" stroke-linejoin="round"/>
</svg>
